<svg width="70" height="49" viewBox="0 0 70 49" fill="none" xmlns="http://www.w3.org/2000/svg">
<g>
<path fill-rule="evenodd" clip-rule="evenodd" d="M42.02 23.1813V48.8612L70 49V25.1246H56.01C55.8772 23.1835 55.8772 21.2357 56.01 19.2946C56.1395 17.3854 56.7142 15.5322 57.6888 13.881C58.6236 11.7347 60.4674 10.1086 62.7252 9.43909C64.8058 8.74459 66.9695 8.32456 69.1606 8.1898V0C65.8779 0.104601 62.6061 0.429231 59.3676 0.971671C57.149 1.27656 54.9834 1.8838 52.9322 2.7762C50.6376 3.69913 48.5816 5.12236 46.9165 6.94051C45.5203 8.33206 44.3414 9.92281 43.419 11.6601C42.7813 13.1302 42.3121 14.6667 42.02 16.2408V19.711C41.9563 20.8669 41.9563 22.0254 42.02 23.1813ZM0.050127 23.1813V48.8612H28.0301V25.1246H14.0401V20.2663C14.0624 18.6133 14.3456 16.9739 14.8795 15.4079C15.4149 13.9416 16.2755 12.6133 17.3977 11.5212C18.6189 10.2225 20.1628 9.26514 21.8745 8.74504C23.0484 8.322 24.2698 8.04232 25.5119 7.91218H27.7503V0.694051H17.9573C15.7431 1.09036 13.5832 1.74258 11.5219 2.63739C9.24188 3.66028 7.15888 5.06945 5.36631 6.8017C4.02851 8.17984 2.94003 9.77637 2.14862 11.5212C1.20308 12.925 0.494298 14.4721 0.050127 16.102V19.711C-0.0167761 20.8668 -0.0167761 22.0255 0.050127 23.1813Z" fill="#E9ECEF"/>
</g>
</svg>
