<svg width="24" height="24" viewBox="0 0 24 24" fill="none" xmlns="http://www.w3.org/2000/svg">
<g>
<path d="M12 2C13.7742 2 15.4677 2.48387 17 3.37097C18.5323 4.25806 19.7419 5.46774 20.629 7C21.5161 8.53226 22 10.2258 22 12C22 13.8145 21.5161 15.4677 20.629 17C19.7419 18.5323 18.5323 19.7823 17 20.6694C15.4677 21.5565 13.7742 22 12 22C10.1855 22 8.53226 21.5565 7 20.6694C5.46774 19.7823 4.21774 18.5323 3.33065 17C2.44355 15.4677 2 13.8145 2 12C2 10.2258 2.44355 8.53226 3.33065 7C4.21774 5.46774 5.46774 4.25806 7 3.37097C8.53226 2.48387 10.1855 2 12 2ZM16.9194 8.85484C16.9597 8.53226 16.9194 8.33065 16.7581 8.16935C16.5968 8.00806 16.4355 7.96774 16.2339 8.04839L6.59677 11.7984C6.23387 11.9194 6.03226 12.0403 6.03226 12.2016C6.03226 12.3629 6.15323 12.4839 6.47581 12.5645L8.93548 13.3306L14.6613 9.74194C14.7823 9.66129 14.9032 9.66129 14.9839 9.66129C15.0645 9.70161 15.0645 9.74194 14.9839 9.82258L10.3468 14.0161L10.1452 16.5565C10.3065 16.5565 10.5081 16.4758 10.6694 16.3145L11.879 15.1452L14.379 17C14.8629 17.2823 15.1452 17.1613 15.2661 16.5968L16.9194 8.85484Z" fill="currentColor"/>
</g>
</svg>
