<svg width="24" height="24" viewBox="0 0 24 24" fill="none" xmlns="http://www.w3.org/2000/svg">
<g>
<path d="M21.2317 10.2C19.4166 10.2037 17.6463 9.66664 16.1707 8.66472V15.6498C16.1703 16.9434 15.7532 18.2062 14.9752 19.269C14.1972 20.3319 13.0954 21.1443 11.8171 21.5975C10.5389 22.0507 9.14509 22.1231 7.82222 21.8051C6.49935 21.4871 5.31044 20.7938 4.41451 19.8179C3.51858 18.842 2.95834 17.6301 2.80871 16.3442C2.65909 15.0584 2.92721 13.7599 3.57722 12.6223C4.22723 11.4848 5.22814 10.5626 6.44609 9.9789C7.66404 9.39523 9.04096 9.17797 10.3927 9.35619V12.8683C9.77461 12.6838 9.11085 12.6892 8.4962 12.8837C7.88154 13.0781 7.34741 13.4517 6.97008 13.9511C6.59275 14.4504 6.39151 15.05 6.39509 15.6642C6.39867 16.2785 6.6069 16.8759 6.99003 17.3713C7.37316 17.8666 7.91161 18.2346 8.5285 18.4226C9.14538 18.6106 9.80916 18.609 10.4251 18.4181C11.041 18.2272 11.5775 17.8568 11.958 17.3596C12.3385 16.8624 12.5436 16.264 12.544 15.6498V2H16.1707C16.1687 2.29076 16.1949 2.58107 16.249 2.86727C16.3752 3.50523 16.6372 4.1121 17.0191 4.6508C17.4011 5.18951 17.8949 5.64873 18.4704 6.00039C19.2896 6.51327 20.2499 6.78635 21.2317 6.78563V10.2Z" fill="#FCFCFC"/>
</g>
</svg>
