<svg width="25" height="24" viewBox="0 0 25 24" fill="none" xmlns="http://www.w3.org/2000/svg">
<path d="M12.0385 2.02356C10.5318 2.02356 8.67508 2.74641 7.49283 3.47089C6.26718 4.25711 4.8595 5.43926 4.8595 7.61447V8.91235C4.54805 8.82509 4.21291 8.75241 3.96366 8.75241C3.34748 8.75241 3.52317 10.0949 3.52317 10.0949C3.52317 10.0949 3.87568 13.5405 4.40415 13.6747L4.84464 14.1222L4.86038 14.0357V15.2182C4.86038 16.4668 5.78371 17.5906 6.80063 18.5376L5.59103 20.9559C5.55159 21.0348 5.52806 21.1206 5.5218 21.2086C5.51554 21.2965 5.52666 21.3848 5.55453 21.4685C5.58241 21.5521 5.62648 21.6295 5.68425 21.6961C5.74201 21.7627 5.81233 21.8173 5.89119 21.8567C5.97005 21.8961 6.0559 21.9196 6.14385 21.9259C6.2318 21.9321 6.32011 21.921 6.40375 21.8931C6.48739 21.8652 6.56472 21.8211 6.63132 21.7633C6.69791 21.7056 6.75248 21.6352 6.79189 21.5564L7.8468 19.4465C7.91633 19.5041 7.99271 19.5728 8.06005 19.6283C8.22965 19.768 8.3906 19.9004 8.53201 20.0208C9.12 20.53 9.88664 20.81 10.6908 20.81H13.4333C14.2375 20.81 15.0038 20.5299 15.5877 20.0243L15.9566 19.714C16.0343 19.649 16.1224 19.5693 16.203 19.5016L17.2492 21.5861C17.2869 21.6679 17.3406 21.7412 17.4073 21.8018C17.4739 21.8624 17.552 21.909 17.637 21.9387C17.722 21.9685 17.8121 21.9808 17.902 21.975C17.9919 21.9693 18.0796 21.9455 18.1601 21.905C18.2406 21.8646 18.3121 21.8084 18.3704 21.7398C18.4287 21.6712 18.4726 21.5915 18.4995 21.5056C18.5264 21.4196 18.5357 21.3291 18.5269 21.2395C18.5181 21.1499 18.4914 21.063 18.4483 20.9839L17.2439 18.583C18.2562 17.6234 19.1702 16.4865 19.1702 15.2191V14.1082L19.5958 13.6756C20.1243 13.5413 20.4768 10.0957 20.4768 10.0957C20.4768 10.0957 20.6525 8.75241 20.0363 8.75241C19.7951 8.75241 19.4727 8.82125 19.1702 8.90448V7.61447C19.1702 5.39093 17.7596 4.22905 16.5299 3.46564L16.5255 3.46389C15.4399 2.79938 13.614 2.02356 12.0385 2.02356ZM12.0376 3.36601C13.244 3.36601 14.8446 4.00922 15.8228 4.60795C17.2467 5.49262 17.8269 6.36376 17.8269 7.61447V10.42C18.0466 10.3314 18.3718 10.2173 18.6537 10.122C18.7776 10.0799 18.913 10.1026 19.0181 10.1823C19.1233 10.2624 19.1855 10.3901 19.1851 10.5257L19.1781 12.3253C19.1772 12.5696 19.0564 12.7976 18.8582 12.9292L17.8278 13.6135V15.2182C17.8278 16.3995 16.1835 17.7734 15.0957 18.6827C14.9628 18.7941 14.8359 18.9009 14.7137 19.0052C14.3687 19.3037 13.9144 19.4675 13.4333 19.4675H10.6908C10.2097 19.4675 9.75459 19.3029 9.406 19.0008C9.25564 18.8728 9.09023 18.7368 8.91482 18.5918C7.83459 17.7008 6.20195 16.3539 6.20195 15.2173V13.5934L5.17326 12.91C4.97548 12.7784 4.85473 12.5504 4.85338 12.3061L4.84552 10.5074C4.84507 10.3718 4.90729 10.244 5.01245 10.1639C5.11761 10.0838 5.2534 10.0615 5.3769 10.1036C5.65792 10.1989 5.98224 10.313 6.20195 10.4016V7.61447C6.20195 6.3924 6.78572 5.51945 8.20514 4.60882C9.21376 3.9913 10.854 3.36601 12.0376 3.36601ZM8.41052 8.00952C8.1226 8.03506 7.83955 8.11893 7.58023 8.25948L7.31716 8.40281C7.26399 8.42996 7.21679 8.46748 7.17834 8.51315C7.13989 8.55882 7.11096 8.61172 7.09327 8.66874C7.07557 8.72576 7.06947 8.78574 7.07531 8.84516C7.08115 8.90457 7.09881 8.96222 7.12727 9.0147C7.15573 9.06718 7.1944 9.11344 7.24101 9.15075C7.28761 9.18806 7.34121 9.21567 7.39865 9.23195C7.45609 9.24823 7.51621 9.25285 7.57546 9.24554C7.63471 9.23824 7.69191 9.21915 7.74367 9.1894L8.00674 9.04607V9.04694C8.30878 8.88324 8.66403 8.85155 8.98998 8.95954L10.9801 9.61941C11.0364 9.64065 11.0965 9.6503 11.1567 9.64776C11.2169 9.64522 11.276 9.63056 11.3304 9.60464C11.3848 9.57873 11.4334 9.5421 11.4732 9.49695C11.5131 9.4518 11.5435 9.39906 11.5625 9.34189C11.5815 9.28472 11.5888 9.2243 11.5839 9.16425C11.579 9.1042 11.562 9.04576 11.534 8.99242C11.506 8.93909 11.4675 8.89197 11.4208 8.85388C11.3741 8.81579 11.3202 8.78752 11.2624 8.77076L9.2714 8.11003C8.99137 8.01725 8.69844 7.98397 8.41052 8.00952ZM15.6218 8.00952C15.3339 7.98397 15.041 8.01724 14.7609 8.11003L12.77 8.77076C12.7121 8.78752 12.6582 8.81579 12.6115 8.85388C12.5649 8.89197 12.5263 8.93909 12.4983 8.99242C12.4703 9.04576 12.4533 9.1042 12.4484 9.16425C12.4435 9.2243 12.4508 9.28472 12.4698 9.34189C12.4888 9.39906 12.5192 9.4518 12.5591 9.49695C12.599 9.5421 12.6476 9.57873 12.702 9.60464C12.7564 9.63056 12.8154 9.64522 12.8756 9.64776C12.9358 9.6503 12.9959 9.64065 13.0523 9.61941L15.0424 8.95954C15.3683 8.85155 15.7236 8.88324 16.0256 9.04694V9.04607L16.2887 9.1894C16.3404 9.21915 16.3976 9.23824 16.4569 9.24554C16.5161 9.25285 16.5762 9.24823 16.6337 9.23195C16.6911 9.21567 16.7447 9.18806 16.7913 9.15075C16.8379 9.11344 16.8766 9.06718 16.9051 9.0147C16.9335 8.96222 16.9512 8.90457 16.957 8.84516C16.9629 8.78574 16.9568 8.72576 16.9391 8.66874C16.9214 8.61172 16.8924 8.55882 16.854 8.51315C16.8155 8.46748 16.7683 8.42996 16.7152 8.40281L16.4521 8.25948C16.1928 8.11893 15.9097 8.03506 15.6218 8.00952ZM14.4716 9.64126C13.5819 9.64126 12.8419 10.0117 12.5725 10.545H11.4485C11.1787 10.0128 10.4392 9.643 9.55108 9.643C8.43282 9.643 7.53828 10.2247 7.53828 10.9855C7.53828 11.7462 8.43282 12.3279 9.55108 12.3279C10.431 12.3279 11.1655 11.965 11.4415 11.4408H12.5803C12.8567 11.9652 13.5911 12.3279 14.4716 12.3279C15.5908 12.3279 16.4862 11.7453 16.4862 10.9846C16.4862 10.2234 15.5908 9.64126 14.4716 9.64126ZM10.4329 15.9078C10.1859 15.9078 9.98545 16.1082 9.98545 16.3552C9.98545 16.6027 10.1859 16.8027 10.4329 16.8027H14.0128C14.2598 16.8027 14.4603 16.6023 14.4603 16.3552C14.4603 16.1082 14.2598 15.9078 14.0128 15.9078H10.4329Z" fill="currentColor"/>
</svg>
