<svg width="24" height="24" viewBox="0 0 24 24" fill="none" xmlns="http://www.w3.org/2000/svg">
<g>
<path d="M16.5703 7.16406C15.5859 7.16406 14.7617 6.48047 14.543 5.5625C13.3477 5.73047 12.4258 6.76172 12.4258 8V8.00781C14.2773 8.07812 15.9648 8.59766 17.3047 9.42578C17.7969 9.04688 18.4141 8.82031 19.082 8.82031C20.6953 8.82031 22 10.125 22 11.7383C22 12.9023 21.3203 13.9062 20.332 14.375C20.2383 17.7656 16.543 20.4922 12.0039 20.4922C7.46484 20.4922 3.77734 17.7695 3.67969 14.3828C2.6875 13.918 2 12.9102 2 11.7383C2 10.125 3.30469 8.82031 4.91797 8.82031C5.58984 8.82031 6.20703 9.04688 6.70312 9.42969C8.03125 8.60547 9.70312 8.08594 11.5352 8.00781V7.99609C11.5352 6.26562 12.8516 4.83594 14.5352 4.65625C14.7266 3.71094 15.5625 3 16.5703 3C17.7188 3 18.6523 3.93359 18.6523 5.08203C18.6523 6.23047 17.7188 7.16406 16.5703 7.16406ZM8.15234 11.7227C7.33594 11.7227 6.63281 12.5352 6.58203 13.5938C6.53125 14.6523 7.25 15.082 8.06641 15.082C8.88281 15.082 9.49609 14.6992 9.54297 13.6406C9.58984 12.582 8.96875 11.7227 8.14844 11.7227H8.15234ZM17.4297 13.5898C17.3828 12.5312 16.6797 11.7188 15.8594 11.7188C15.0391 11.7188 14.418 12.5781 14.4648 13.6367C14.5117 14.6953 15.125 15.0781 15.9414 15.0781C16.7578 15.0781 17.4766 14.6484 17.4258 13.5898H17.4297ZM15.082 16.3555C15.1406 16.2148 15.043 16.0547 14.8906 16.0391C13.9922 15.9492 13.0195 15.8984 12.0078 15.8984C10.9961 15.8984 10.0234 15.9492 9.125 16.0391C8.97266 16.0547 8.875 16.2148 8.93359 16.3555C9.4375 17.5586 10.625 18.4023 12.0078 18.4023C13.3906 18.4023 14.5781 17.5586 15.082 16.3555Z" fill="currentColor"/>
</g>
</svg>
